<svg height="512pt" viewBox="0 0 512 512.00009" width="512pt" xmlns="http://www.w3.org/2000/svg" fill = "#ffffff"><path d="m446.667969 86.617188 30.007812-30.003907c5.859375-5.859375 5.859375-15.355469 0-21.214843-5.863281-5.859376-15.355469-5.859376-21.214843 0l-30.003907 30.003906c-5.859375 5.859375-5.859375 15.355468 0 21.214844 5.859375 5.859374 15.351563 5.859374 21.210938 0zm0 0"/><path d="m406.058594 151.023438h60.007812c8.292969 0 15.003906-6.710938 15.003906-15.003907s-6.710937-15.003906-15.003906-15.003906h-60.007812c-8.292969 0-15.003906 6.710937-15.003906 15.003906s6.710937 15.003907 15.003906 15.003907zm0 0"/><path d="m376.054688 91.011719c8.292968 0 15-6.707031 15-15v-61.007813c0-8.292968-6.707032-15.003906-15-15.003906-8.292969 0-15.003907 6.710938-15.003907 15.003906v61.007813c0 8.292969 6.710938 15 15.003907 15zm0 0"/><path d="m282.101562 385.285156c7.617188 12.4375 18.707032 22.386719 32.257813 28.714844 18.210937 8.46875 38.53125 9.359375 57.34375 2.535156 18.796875-6.84375 33.8125-20.613281 42.296875-38.796875 6.3125-13.550781 8.421875-28.320312 6.253906-42.734375zm0 0"/><path d="m502.070312 289.617188c-31.179687-85.691407-126.734374-129.875-212.453124-98.628907-85.699219 31.179688-129.863282 125.769531-98.628907 211.496094 30.960938 85.085937 125.199219 131.027344 211.496094 99.585937 85.695313-31.179687 130.820313-126.730468 99.585937-212.453124zm-162.4375-5.070313c-2.84375-7.792969 1.171876-16.410156 8.949219-19.234375l28.191407-10.273438c7.851562-2.839843 16.40625 1.1875 19.234374 8.953126 2.84375 7.792968-1.171874 16.40625-8.953124 19.234374l-28.1875 10.269532c-7.882813 2.855468-16.4375-1.265625-19.234376-8.949219zm-75.625 11.542969 28.199219-10.269532c7.765625-2.796874 16.394531 1.171876 19.222657 8.964844 2.84375 7.78125-1.171876 16.394532-8.964844 19.222656l-28.203125 10.269532c-7.730469 2.824218-16.375-1.132813-19.222657-8.964844-2.839843-7.78125 1.171876-16.394531 8.96875-19.222656zm177.183594 94.320312c-11.867187 25.449219-32.90625 44.742188-59.234375 54.308594-26.277343 9.585938-54.8125 8.34375-80.269531-3.527344-25.449219-11.867187-44.742188-32.90625-54.308594-59.234375-2.84375-7.777343 1.171875-16.394531 8.964844-19.222656l169.15625-61.558594c7.75-2.84375 16.394531 1.183594 19.21875 8.964844 9.585938 26.3125 8.339844 54.824219-3.527344 80.269531zm0 0"/><path d="m166.023438 241.035156c-41.359376 0-75.011719-33.652344-75.011719-75.011718 0-8.292969 6.710937-15 15.003906-15s15 6.707031 15 15c0 24.816406 20.191406 45.007812 45.007813 45.007812 24.816406 0 45.007812-20.191406 45.007812-45.007812 0-8.292969 6.707031-15 15-15s15.003906 6.707031 15.003906 15c0 6.179687-.964844 12.101562-2.382812 17.851562 12.679687-8.367188 26.070312-15.765625 40.707031-21.089844 16.535156-6.019531 33.683594-9.019531 50.996094-10.429687-6.988281-84.609375-77.949219-152.355469-164.332031-152.355469-90.992188 0-166.023438 75.03125-166.023438 166.023438 0 86.183593 67.441406 157.042968 151.777344 164.300781 1.859375-22.800781 7.558594-45.347657 17.511718-66.699219 4.15625-8.910156 9.472657-16.984375 14.796876-25.039062-5.816407 1.453124-11.800782 2.449218-18.0625 2.449218zm30.003906-150.023437h30.003906c8.292969 0 15.003906 6.710937 15.003906 15.003906s-6.710937 15-15.003906 15h-30.003906c-8.292969 0-15-6.707031-15-15s6.707031-15.003906 15-15.003906zm-90.011719 0h30.003906c8.292969 0 15.003907 6.710937 15.003907 15.003906s-6.710938 15-15.003907 15h-30.003906c-8.292969 0-15.003906-6.707031-15.003906-15s6.710937-15.003906 15.003906-15.003906zm0 0"/></svg>