<svg xmlns="http://www.w3.org/2000/svg" xmlns:xlink="http://www.w3.org/1999/xlink" version="1.1" x="0px" y="0px" viewBox="0 0 52 65" style="enable-background:new 0 0 52 52;" xml:space="preserve" fill = "#ffffff"><path d="M50,49h-4.1240845V9.7659912c0-0.5599976-0.4499512-1-1-1h-9c-0.5499878,0-1,0.4400024-1,1V49h-3.3800049V21.0960083  c0-0.5499878-0.4400024-1-1-1h-9c-0.5499878,0-1,0.4500122-1,1V49h-3.3699951V29.2659912c0-0.5599976-0.4499512-1-1-1h-9  c-0.5499878,0-1,0.4400024-1,1V49H3V2c0-0.5522461-0.4472656-1-1-1S1,1.4477539,1,2v48c0,0.5522461,0.4472656,1,1,1h48  c0.5527344,0,1-0.4477539,1-1S50.5527344,49,50,49z"/></svg>