<svg id="Layer_1" height="512" viewBox="0 0 512 512" width="512" xmlns="http://www.w3.org/2000/svg" data-name="Layer 1" fill = "#ffffff"><path d="m103.428 58.49a6 6 0 0 0 -6 6v111.183a28.823 28.823 0 0 1 -23.086 28.209l-.179-139.4a6 6 0 0 0 -6-5.992h-.008a6 6 0 0 0 -5.992 6.01l.178 139.245a28.821 28.821 0 0 1 -22.464-28.07v-111.185a6 6 0 0 0 -12 0v111.183a40.839 40.839 0 0 0 34.48 40.288l.3 231.557a6 6 0 0 0 6 5.992h.008a6 6 0 0 0 5.992-6.008l-.3-231.461a40.831 40.831 0 0 0 35.071-40.368v-111.183a6 6 0 0 0 -6-6z"/><path d="m255.755 177a79 79 0 1 0 55.861 23.139 78.48 78.48 0 0 0 -55.861-23.139zm-38.15 125.635a6 6 0 0 1 -8.485 0 65.708 65.708 0 0 1 -19-40.175 6 6 0 1 1 11.943-1.169 53.715 53.715 0 0 0 15.544 32.859 6 6 0 0 1 -.002 8.485z"/><path d="m255.755 115c-77.747 0-141 63.252-141 141s63.253 141 141 141 141-63.252 141-141-63.255-141-141-141zm64.345 205.347a91 91 0 1 1 26.655-64.347 90.408 90.408 0 0 1 -26.655 64.347z"/><path d="m484.122 78.694a6 6 0 0 0 -6.123-6 54.384 54.384 0 0 0 -53.264 54.514l.365 141.542a5.969 5.969 0 0 0 .436 2.222 6.01 6.01 0 0 1 1.371-.163h55.04a5.97 5.97 0 0 1 2.174.412v-192.527z"/><path d="m452.123 282.809v154.7a16 16 0 0 0 32 0v-155.109a5.97 5.97 0 0 1 -2.174.413z"/></svg>